<?xml version="1.0" encoding="iso-8859-1"?>
<!-- Generator: Adobe Illustrator 25.2.0, SVG Export Plug-In . SVG Version: 6.00 Build 0)  -->
<svg version="1.0" id="Layer_1" xmlns="http://www.w3.org/2000/svg" xmlns:xlink="http://www.w3.org/1999/xlink" x="0px" y="0px"
	 viewBox="0 0 717.956 165" style="enable-background:new 0 0 717.956 165;" xml:space="preserve">
<g>
	
		<rect x="193.131" y="4.034" style="fill:none;stroke:#60A5FA;stroke-width:9;stroke-miterlimit:10;" width="520.325" height="156.5"/>
	<g>
		<rect x="0.5" style="fill:#60A5FA;stroke:#60A5FA;stroke-miterlimit:10;" width="195.978" height="164.5"/>
	</g>
	<g>
		<g>
			<defs>
				<path id="SVGID_1_" d="M225.857,73.46V39.32c0-1.896,0.73-3.508,2.193-4.836c1.463-1.327,3.238-1.992,5.328-1.992h30.087
					c2.089,0,3.865,0.665,5.328,1.992c1.462,1.328,2.193,2.939,2.193,4.836v34.14h-5.077V58.495h-34.976V73.46H225.857z
					 M230.935,53.886h34.976V39.32c0-0.606-0.24-1.128-0.721-1.564c-0.48-0.436-1.056-0.654-1.724-0.654h-30.087
					c-0.669,0-1.244,0.219-1.724,0.654c-0.481,0.437-0.721,0.958-0.721,1.564V53.886z M285.905,73.46
					c-2.09,0-3.865-0.663-5.327-1.991c-1.464-1.327-2.194-2.939-2.194-4.837v-34.14h5.077v34.14c0,0.607,0.24,1.129,0.721,1.565
					s1.055,0.654,1.724,0.654h30.087c0.668,0,1.243-0.218,1.724-0.654s0.722-0.958,0.722-1.565v-34.14h5.077v34.14
					c0,1.897-0.732,3.51-2.194,4.837c-1.463,1.328-3.238,1.991-5.328,1.991H285.905z M348.586,73.46V37.101h-20.058v-4.609h45.13
					v4.609h-19.995V73.46H348.586z M386.131,73.46c-2.09,0-3.865-0.663-5.327-1.991c-1.464-1.327-2.194-2.939-2.194-4.837V39.32
					c0-1.896,0.73-3.508,2.194-4.836c1.462-1.327,3.237-1.992,5.327-1.992h30.087c2.09,0,3.865,0.665,5.328,1.992
					c1.462,1.328,2.194,2.939,2.194,4.836v27.312c0,1.897-0.732,3.51-2.194,4.837c-1.463,1.328-3.238,1.991-5.328,1.991H386.131z
					 M386.131,68.851h30.087c0.668,0,1.243-0.218,1.724-0.654s0.722-0.958,0.722-1.565V39.32c0-0.606-0.241-1.128-0.722-1.564
					c-0.48-0.436-1.056-0.654-1.724-0.654h-30.087c-0.669,0-1.243,0.219-1.724,0.654c-0.48,0.437-0.721,0.958-0.721,1.564v27.312
					c0,0.607,0.24,1.129,0.721,1.565S385.462,68.851,386.131,68.851z M431.01,73.46V32.492h6.958l18.741,20.257l18.742-20.257h6.958
					V73.46h-5.078V37.727l-20.622,22.247l-20.622-22.247V73.46H431.01z M489.68,73.46V39.32c0-1.896,0.73-3.508,2.193-4.836
					c1.463-1.327,3.238-1.992,5.328-1.992h30.087c2.089,0,3.865,0.665,5.328,1.992c1.462,1.328,2.193,2.939,2.193,4.836v34.14
					h-5.077V58.495h-34.976V73.46H489.68z M494.757,53.886h34.976V39.32c0-0.606-0.24-1.128-0.721-1.564
					c-0.48-0.436-1.056-0.654-1.724-0.654h-30.087c-0.669,0-1.244,0.219-1.724,0.654c-0.481,0.437-0.721,0.958-0.721,1.564V53.886z
					 M560.133,73.46V37.101h-20.058v-4.609h45.13v4.609H565.21V73.46H560.133z M590.407,73.46V32.492h41.182v4.609h-36.104v13.542
					h29.021v4.666h-29.021v13.542h36.104v4.608H590.407z M638.796,73.46V32.492h37.608c2.089,0,3.865,0.665,5.328,1.992
					c1.462,1.328,2.193,2.939,2.193,4.836v27.312c0,1.897-0.731,3.51-2.193,4.837c-1.463,1.328-3.239,1.991-5.328,1.991H638.796z
					 M646.317,68.851h30.087c0.668,0,1.243-0.218,1.724-0.654s0.721-0.958,0.721-1.565V39.32c0-0.606-0.24-1.128-0.721-1.564
					c-0.48-0.436-1.056-0.654-1.724-0.654h-30.087c-0.669,0-1.244,0.219-1.724,0.654c-0.481,0.437-0.721,0.958-0.721,1.564v27.312
					c0,0.607,0.239,1.129,0.721,1.565C645.073,68.633,645.648,68.851,646.317,68.851z"/>
			</defs>
			<clipPath id="SVGID_3_">
				<use xlink:href="#SVGID_1_"  style="overflow:visible;"/>
			</clipPath>
			
				<rect x="184.024" y="-73.212" style="clip-path:url(#SVGID_3_);fill:#60A5FA;stroke:#60A5FA;stroke-miterlimit:10;" width="527.714" height="250.93"/>
		</g>
		<g>
			<path style="fill:#60A5FA;stroke:#60A5FA;stroke-miterlimit:10;" d="M226.007,132.198V91.23h5.193v40.968H226.007z"/>
			<path style="fill:#60A5FA;stroke:#60A5FA;stroke-miterlimit:10;" d="M239.37,132.198V91.23h7.029l18.937,20.257l18.937-20.257
				h7.029v40.968h-5.13V96.465l-20.836,22.247L244.5,96.465v35.732H239.37z"/>
			<path style="fill:#60A5FA;stroke:#60A5FA;stroke-miterlimit:10;" d="M297.698,132.198V91.23h7.029l18.937,20.257l18.937-20.257
				h7.029v40.968h-5.13V96.465l-20.836,22.247l-20.836-22.247v35.732H297.698z"/>
			<path style="fill:#60A5FA;stroke:#60A5FA;stroke-miterlimit:10;" d="M355.772,132.198V91.23h5.193v40.968H355.772z"/>
			<path style="fill:#60A5FA;stroke:#60A5FA;stroke-miterlimit:10;" d="M376.734,132.198c-2.111,0-3.906-0.663-5.383-1.991
				c-1.479-1.327-2.217-2.939-2.217-4.837V98.058c0-1.896,0.738-3.508,2.217-4.836c1.477-1.327,3.271-1.992,5.383-1.992h30.399
				c2.11,0,3.904,0.665,5.383,1.992c1.478,1.328,2.217,2.939,2.217,4.836v1.65h-5.13v-1.65c0-0.606-0.243-1.128-0.729-1.564
				c-0.485-0.436-1.066-0.654-1.741-0.654h-30.399c-0.676,0-1.257,0.219-1.742,0.654c-0.485,0.437-0.728,0.958-0.728,1.564v27.312
				c0,0.607,0.242,1.129,0.728,1.565s1.066,0.654,1.742,0.654h30.399c0.675,0,1.256-0.218,1.741-0.654s0.729-0.958,0.729-1.565
				v-10.128H398.33v-4.666h16.403v14.794c0,1.897-0.739,3.51-2.217,4.837c-1.479,1.328-3.272,1.991-5.383,1.991H376.734z"/>
			<path style="fill:#60A5FA;stroke:#60A5FA;stroke-miterlimit:10;" d="M421.192,132.198v-40.91h37.999
				c2.11,0,3.904,0.674,5.383,2.02c1.478,1.347,2.217,2.95,2.217,4.808v12.006c0,1.859-0.739,3.462-2.217,4.809
				c-1.479,1.347-3.272,2.02-5.383,2.02h-6.967l14.313,15.192v0.057h-6.776l-14.25-15.249l-19.189-0.057v15.306H421.192z
				 M428.792,112.283h30.399c0.675,0,1.245-0.208,1.71-0.626c0.464-0.417,0.696-0.929,0.696-1.536V98.115
				c0-0.605-0.232-1.128-0.696-1.564c-0.465-0.436-1.035-0.654-1.71-0.654h-30.399c-0.676,0-1.257,0.219-1.741,0.654
				c-0.486,0.437-0.729,0.959-0.729,1.564v12.006c0,0.607,0.242,1.119,0.729,1.536C427.535,112.075,428.116,112.283,428.792,112.283
				z"/>
			<path style="fill:#60A5FA;stroke:#60A5FA;stroke-miterlimit:10;" d="M473.188,132.198v-34.14c0-1.896,0.738-3.508,2.217-4.836
				c1.478-1.327,3.271-1.992,5.384-1.992h30.398c2.111,0,3.905,0.665,5.384,1.992c1.478,1.328,2.217,2.939,2.217,4.836v34.14h-5.13
				v-14.965h-35.34v14.965H473.188z M478.317,112.625h35.34V98.058c0-0.606-0.244-1.128-0.729-1.564
				c-0.486-0.436-1.066-0.654-1.742-0.654h-30.398c-0.676,0-1.257,0.219-1.742,0.654c-0.485,0.437-0.729,0.958-0.729,1.564V112.625z
				"/>
			<path style="fill:#60A5FA;stroke:#60A5FA;stroke-miterlimit:10;" d="M543.55,132.198V95.839h-20.267V91.23h45.599v4.609H548.68
				v36.358H543.55z"/>
			<path style="fill:#60A5FA;stroke:#60A5FA;stroke-miterlimit:10;" d="M572.935,132.198V91.23h5.193v40.968H572.935z"/>
			<path style="fill:#60A5FA;stroke:#60A5FA;stroke-miterlimit:10;" d="M593.77,132.198c-2.111,0-3.905-0.663-5.383-1.991
				c-1.479-1.327-2.217-2.939-2.217-4.837V98.058c0-1.896,0.738-3.508,2.217-4.836c1.478-1.327,3.271-1.992,5.383-1.992h30.399
				c2.11,0,3.905,0.665,5.383,1.992c1.478,1.328,2.217,2.939,2.217,4.836v27.312c0,1.897-0.739,3.51-2.217,4.837
				c-1.478,1.328-3.272,1.991-5.383,1.991H593.77z M593.77,127.589h30.399c0.675,0,1.256-0.218,1.741-0.654s0.729-0.958,0.729-1.565
				V98.058c0-0.606-0.243-1.128-0.729-1.564c-0.485-0.436-1.066-0.654-1.741-0.654H593.77c-0.676,0-1.257,0.219-1.741,0.654
				c-0.486,0.437-0.729,0.958-0.729,1.564v27.312c0,0.607,0.242,1.129,0.729,1.565C592.513,127.372,593.094,127.589,593.77,127.589z
				"/>
			<path style="fill:#60A5FA;stroke:#60A5FA;stroke-miterlimit:10;" d="M638.292,132.198V91.23h7.029l33.439,35.733V91.23h5.13
				v40.968h-7.03l-33.438-35.732v35.732H638.292z"/>
		</g>
	</g>
	<g>
		<path style="fill:none;stroke:#FFFFFF;stroke-width:3.6;stroke-miterlimit:10;" d="M145.204,131.688V33.051h4.889
			c8.876,0,16.071,7.195,16.071,16.071v82.566H145.204z"/>
		<path style="fill:none;stroke:#FFFFFF;stroke-width:3.6;stroke-miterlimit:10;" d="M129.45,33.051L129.45,33.051l-78.362,0
			c-5.572,0-10.344,1.987-14.316,5.959c-3.973,3.973-5.959,8.746-5.959,14.316v78.362h21.234V99.905h55.894v31.783h21.509v0h1.06
			V33.051H129.45z M107.941,58.943v19.591H52.047V58.943v-4.521h4.521h46.853h4.521V58.943z"/>
	</g>
</g>
</svg>
