<svg width="35" height="35" viewBox="0 0 35 35" fill="none" xmlns="http://www.w3.org/2000/svg">
<path d="M23.125 26.875C25.1961 26.875 26.875 25.1961 26.875 23.125C26.875 21.0539 25.1961 19.375 23.125 19.375C21.0539 19.375 19.375 21.0539 19.375 23.125C19.375 25.1961 21.0539 26.875 23.125 26.875Z" fill="#1672EC"/>
<path fill-rule="evenodd" clip-rule="evenodd" d="M6.25 0.625C3.1434 0.625 0.625 3.1434 0.625 6.25V28.75C0.625 31.8566 3.1434 34.375 6.25 34.375H28.75C31.8566 34.375 34.375 31.8566 34.375 28.75V6.25C34.375 3.1434 31.8566 0.625 28.75 0.625H6.25ZM4.375 28.75V10H30.625V28.75C30.625 29.7855 29.7855 30.625 28.75 30.625H6.25C5.21447 30.625 4.375 29.7855 4.375 28.75Z" fill="#1672EC"/>
</svg>
