<svg width="20" height="20" viewBox="0 0 20 20" fill="none" xmlns="http://www.w3.org/2000/svg">
<path d="M16.9999 2.99997H15.9999V0.99997C15.9999 0.734753 15.8946 0.480399 15.707 0.292863C15.5195 0.105326 15.2652 -3.05176e-05 14.9999 -3.05176e-05C14.7347 -3.05176e-05 14.4804 0.105326 14.2928 0.292863C14.1053 0.480399 13.9999 0.734753 13.9999 0.99997V2.99997H5.99994V0.99997C5.99994 0.734753 5.89458 0.480399 5.70705 0.292863C5.51951 0.105326 5.26516 -3.05176e-05 4.99994 -3.05176e-05C4.73472 -3.05176e-05 4.48037 0.105326 4.29283 0.292863C4.1053 0.480399 3.99994 0.734753 3.99994 0.99997V2.99997H2.99994C2.20429 2.99997 1.44123 3.31604 0.878619 3.87865C0.31601 4.44126 -6.10352e-05 5.20432 -6.10352e-05 5.99997V6.99997H19.9999V5.99997C19.9999 5.20432 19.6839 4.44126 19.1213 3.87865C18.5587 3.31604 17.7956 2.99997 16.9999 2.99997Z" fill="#60A5FA"/>
<path d="M-6.10352e-05 17C-6.10352e-05 17.7956 0.31601 18.5587 0.878619 19.1213C1.44123 19.6839 2.20429 20 2.99994 20H16.9999C17.7956 20 18.5587 19.6839 19.1213 19.1213C19.6839 18.5587 19.9999 17.7956 19.9999 17V8.99998H-6.10352e-05V17Z" fill="#60A5FA"/>
</svg>
