<svg width="50" height="50" viewBox="0 0 50 50" fill="none" xmlns="http://www.w3.org/2000/svg">
<path d="M5.7509 1.03686C4.44915 -0.26489 2.33861 -0.26489 1.03686 1.03686C-0.26489 2.33861 -0.26489 4.44916 1.03686 5.7509L20.286 25L1.03706 44.2489C-0.26469 45.5507 -0.264691 47.6612 1.03706 48.963C2.3388 50.2647 4.44936 50.2647 5.7511 48.963L25 29.7141L44.2489 48.963C45.5507 50.2647 47.6612 50.2647 48.963 48.963C50.2647 47.6612 50.2647 45.5507 48.963 44.2489L29.7141 25L48.9632 5.7509C50.2649 4.44916 50.2649 2.33861 48.9632 1.03686C47.6614 -0.26489 45.5509 -0.26489 44.2491 1.03686L25 20.286L5.7509 1.03686Z" fill="#DC2626"/>
</svg>
