<svg width="24" height="24" viewBox="0 0 24 24" fill="none" xmlns="http://www.w3.org/2000/svg">
<path d="M8 0.999954H4C2.34315 0.999954 1 2.3431 1 3.99995V7.99995C1 9.65681 2.34315 11 4 11H8C9.65686 11 11 9.65681 11 7.99995V3.99995C11 2.3431 9.65686 0.999954 8 0.999954Z" fill="#717579"/>
<path d="M20 0.999954H16C14.3431 0.999954 13 2.3431 13 3.99995V7.99995C13 9.65681 14.3431 11 16 11H20C21.6569 11 23 9.65681 23 7.99995V3.99995C23 2.3431 21.6569 0.999954 20 0.999954Z" fill="#717579"/>
<path d="M8 13H4C2.34315 13 1 14.3431 1 16V20C1 21.6568 2.34315 23 4 23H8C9.65686 23 11 21.6568 11 20V16C11 14.3431 9.65686 13 8 13Z" fill="#717579"/>
<path d="M20 13H16C14.3431 13 13 14.3431 13 16V20C13 21.6568 14.3431 23 16 23H20C21.6569 23 23 21.6568 23 20V16C23 14.3431 21.6569 13 20 13Z" fill="#717579"/>
</svg>
