<svg width="22" height="22" viewBox="0 0 22 22" fill="none" xmlns="http://www.w3.org/2000/svg">
<path d="M21.44 11.035C21.3838 11.172 21.2882 11.2892 21.1654 11.372C21.0427 11.4547 20.8981 11.4993 20.75 11.5H18.5V19C18.5 19.5968 18.263 20.169 17.841 20.591C17.4191 21.013 16.8468 21.25 16.25 21.25H13.25C13.0511 21.25 12.8604 21.171 12.7197 21.0303C12.5791 20.8897 12.5 20.6989 12.5 20.5V16C12.5 15.8011 12.421 15.6103 12.2804 15.4697C12.1397 15.329 11.949 15.25 11.75 15.25H10.25C10.0511 15.25 9.86037 15.329 9.71971 15.4697C9.57906 15.6103 9.50004 15.8011 9.50004 16V20.5C9.50004 20.6989 9.42103 20.8897 9.28037 21.0303C9.13972 21.171 8.94896 21.25 8.75004 21.25H5.75004C5.15331 21.25 4.58101 21.013 4.15905 20.591C3.7371 20.169 3.50004 19.5968 3.50004 19V11.5H1.25004C1.10197 11.4993 0.957437 11.4547 0.834647 11.372C0.711857 11.2892 0.616309 11.172 0.560044 11.035C0.502609 10.8984 0.486917 10.7479 0.514948 10.6024C0.542978 10.4569 0.613475 10.323 0.717544 10.2175L10.4675 0.467515C10.5373 0.397219 10.6202 0.341423 10.7116 0.303347C10.803 0.26527 10.901 0.245667 11 0.245667C11.0991 0.245667 11.1971 0.26527 11.2885 0.303347C11.3799 0.341423 11.4628 0.397219 11.5325 0.467515L21.2825 10.2175C21.3866 10.323 21.4571 10.4569 21.4851 10.6024C21.5132 10.7479 21.4975 10.8984 21.44 11.035Z" fill="#717579"/>
</svg>
