<svg width="20" height="24" viewBox="0 0 20 24" fill="none" xmlns="http://www.w3.org/2000/svg">
<path d="M19.2961 8.6858C19.1797 8.44064 18.9324 8.28427 18.6609 8.28427H11.6087L15.8772 1.06083C16.0057 0.843469 16.0077 0.573844 15.8825 0.354609C15.7574 0.135375 15.5243 -9.37014e-05 15.2718 4.86277e-08L9.24676 0.000656299C8.99673 0.000750049 8.7655 0.1335 8.63954 0.349453L0.73173 13.905C0.604839 14.1224 0.603949 14.3911 0.729339 14.6094C0.85473 14.8277 1.08728 14.9624 1.33904 14.9624H8.34629L6.30535 23.1263C6.22548 23.4457 6.37806 23.7779 6.67243 23.9255C6.77284 23.9757 6.88051 24 6.98715 24C7.19321 24 7.39515 23.9094 7.53231 23.7413L19.2058 9.43186C19.3774 9.22148 19.4125 8.93105 19.2961 8.6858Z" fill="#717579"/>
</svg>
