<svg width="24" height="24" viewBox="0 0 24 24" fill="none" xmlns="http://www.w3.org/2000/svg">
<path d="M22.8567 20.9737L18.5325 16.6495C19.8431 14.934 20.5618 12.8531 20.5621 10.6573C20.5621 8.01111 19.5315 5.52315 17.6601 3.65206C15.789 1.78097 13.3013 0.750366 10.6549 0.750366C8.0087 0.750366 5.52075 1.78097 3.64966 3.65206C-0.212972 7.51501 -0.212972 13.8002 3.64966 17.6625C5.52075 19.5339 8.0087 20.5645 10.6549 20.5645C12.8507 20.5642 14.9316 19.8455 16.6471 18.535L20.9713 22.8591C21.2314 23.1195 21.5728 23.2497 21.914 23.2497C22.2551 23.2497 22.5966 23.1195 22.8567 22.8591C23.3775 22.3386 23.3775 21.4942 22.8567 20.9737ZM5.53507 15.7771C2.71216 12.9541 2.71248 8.36072 5.53507 5.53748C6.90259 4.17029 8.72094 3.41703 10.6549 3.41703C12.5891 3.41703 14.4071 4.17029 15.7747 5.53748C17.1422 6.90499 17.8954 8.72335 17.8954 10.6573C17.8954 12.5915 17.1422 14.4095 15.7747 15.7771C14.4071 17.1446 12.5891 17.8978 10.6549 17.8978C8.72094 17.8978 6.90259 17.1446 5.53507 15.7771Z" fill="#717579"/>
</svg>
