<svg width="22" height="22" viewBox="0 0 22 22" fill="none" xmlns="http://www.w3.org/2000/svg">
<path d="M17 -4.57764e-05H5C3.67441 0.00154208 2.40356 0.528836 1.46622 1.46617C0.528882 2.40351 0.00158786 3.67436 0 4.99995V13C0.00145452 14.1522 0.40009 15.2686 1.12872 16.1612C1.85735 17.0538 2.87141 17.6679 4 17.9V21C3.99997 21.181 4.0491 21.3587 4.14213 21.514C4.23516 21.6693 4.36861 21.7964 4.52823 21.8818C4.68786 21.9672 4.86769 22.0077 5.04852 21.9989C5.22935 21.9901 5.4044 21.9324 5.555 21.832L11.3 18H17C18.3256 17.9984 19.5964 17.4711 20.5338 16.5337C21.4711 15.5964 21.9984 14.3255 22 13V4.99995C21.9984 3.67436 21.4711 2.40351 20.5338 1.46617C19.5964 0.528836 18.3256 0.00154208 17 -4.57764e-05ZM15 12H7C6.73478 12 6.48043 11.8946 6.29289 11.7071C6.10536 11.5195 6 11.2652 6 11C6 10.7347 6.10536 10.4804 6.29289 10.2928C6.48043 10.1053 6.73478 9.99995 7 9.99995H15C15.2652 9.99995 15.5196 10.1053 15.7071 10.2928C15.8946 10.4804 16 10.7347 16 11C16 11.2652 15.8946 11.5195 15.7071 11.7071C15.5196 11.8946 15.2652 12 15 12ZM17 7.99995H5C4.73478 7.99995 4.48043 7.8946 4.29289 7.70706C4.10536 7.51952 4 7.26517 4 6.99995C4 6.73474 4.10536 6.48038 4.29289 6.29285C4.48043 6.10531 4.73478 5.99995 5 5.99995H17C17.2652 5.99995 17.5196 6.10531 17.7071 6.29285C17.8946 6.48038 18 6.73474 18 6.99995C18 7.26517 17.8946 7.51952 17.7071 7.70706C17.5196 7.8946 17.2652 7.99995 17 7.99995Z" fill="#717579"/>
</svg>
